<svg width="56" height="56" viewBox="0 0 56 56" fill="none" xmlns="http://www.w3.org/2000/svg">
<path d="M35.7703 42.2525C35.7703 44.6159 37.6861 46.5318 40.0495 46.5318C42.4129 46.5318 44.3288 44.6159 44.3288 42.2525C44.3288 39.8891 42.4129 37.9732 40.0495 37.9732C37.6861 37.9732 35.7703 39.8891 35.7703 42.2525ZM35.7703 42.2525H32.2749M21.1381 42.2525H32.2749M12.4645 42.2525C12.4645 44.6159 14.3804 46.5318 16.7438 46.5318C19.1072 46.5318 21.0231 44.6159 21.0231 42.2525C21.0231 39.8891 19.1072 37.9732 16.7438 37.9732C14.3804 37.9732 12.4645 39.8891 12.4645 42.2525ZM12.4645 42.2525L11.0161 42.2525C8.80697 42.2525 7.01611 40.4616 7.01611 38.2525V34.6129M48.9837 32.0902H39.8406C37.6314 32.0902 35.8406 30.2993 35.8406 28.0902V20.7573M32.2749 20.7573V34.6129M32.2749 20.7573H40.1505C41.4818 20.7573 42.7259 21.4197 43.4692 22.5242L48.3027 29.7076C48.7469 30.3676 48.9841 31.1451 48.9841 31.9407V38.2526C48.9841 40.4617 47.1932 42.2526 44.9841 42.2526H44.3232M32.2749 20.7573V20.6816C32.2749 18.4725 30.4841 16.6816 28.2749 16.6816H25.7535M32.2749 34.6129H7.01611M32.2749 34.6129V42.2525M7.01611 34.6129V20.6816C7.01611 18.4725 8.80697 16.6816 11.0161 16.6816H13.5" stroke="#48C7F4" stroke-width="1.5" stroke-miterlimit="10" stroke-linecap="round" stroke-linejoin="round"/>
<path fill-rule="evenodd" clip-rule="evenodd" d="M18.5549 24.6184H20.603C20.8322 24.6184 21.0202 24.4357 21.0202 24.2066V20.486C21.0202 20.2598 20.8351 20.0742 20.603 20.0742H18.5549C18.3257 20.0742 18.1377 20.2569 18.1377 20.486V24.2066C18.1377 24.4328 18.3228 24.6184 18.5549 24.6184Z" stroke="#FF7000" stroke-width="1.5" stroke-miterlimit="10" stroke-linecap="round" stroke-linejoin="round"/>
<path fill-rule="evenodd" clip-rule="evenodd" d="M25.6274 9.92404V31.3718C25.6274 31.6241 25.3865 31.8271 25.0926 31.8271H14.0651C13.7683 31.8271 13.5303 31.6241 13.5303 31.3718V9.92404C13.5303 9.67174 13.7712 9.46875 14.0651 9.46875H25.0897C25.3865 9.46875 25.6274 9.67174 25.6274 9.92404Z" stroke="#FF7000" stroke-width="1.5" stroke-miterlimit="10"/>
<path d="M13.5303 16.6816H25.6274" stroke="#FF7000" stroke-width="1.5" stroke-miterlimit="10" stroke-linecap="round" stroke-linejoin="round"/>
</svg>
