<svg width="56" height="56" viewBox="0 0 56 56" fill="none" xmlns="http://www.w3.org/2000/svg">
<path d="M48.895 26.7048V17.3563H41.236M48.895 26.7048H51.4589V36.0533H42.1156C39.5341 36.0533 37.4413 33.9606 37.4413 31.3791V31.3791C37.4413 28.7975 39.5341 26.7048 42.1156 26.7048H48.895ZM48.895 36.0533V45.965H15.7319C13.022 45.965 10.8252 43.7682 10.8252 41.0583V41.0583M10.8252 13.6957V20.9671M41.236 17.3563H14.4858C12.4641 17.3563 10.8252 15.7174 10.8252 13.6957V13.6957C10.8252 11.674 12.4641 10.0352 14.4858 10.0352H41.236V17.3563ZM44.361 31.3517C44.361 32.5805 43.3648 33.5767 42.136 33.5767C40.9071 33.5767 39.9109 32.5805 39.9109 31.3517C39.9109 30.1228 40.9071 29.1266 42.136 29.1266C43.3648 29.1266 44.361 30.1228 44.361 31.3517Z" stroke="#48C7F4" stroke-width="1.5" stroke-linecap="round" stroke-linejoin="round"/>
<path d="M4.54053 25.7322H34.6677M4.54053 31.6389H34.6677M9.54053 41.0137H29.6677C32.4292 41.0137 34.6677 38.7752 34.6677 36.0137V26.0068C34.6677 23.2454 32.4292 21.0068 29.6677 21.0068H9.54053C6.7791 21.0068 4.54053 23.2454 4.54053 26.0068V36.0137C4.54053 38.7752 6.77911 41.0137 9.54053 41.0137Z" stroke="#FF7000" stroke-width="1.5" stroke-linecap="round" stroke-linejoin="round"/>
</svg>
