<svg width="56" height="56" viewBox="0 0 56 56" fill="none" xmlns="http://www.w3.org/2000/svg">
<path d="M29.3672 13.3174H31.7641C31.9701 13.3174 32.1366 13.4839 32.1366 13.6898V40.0155C32.1366 40.2214 31.9701 40.3879 31.7641 40.3879H29.3672" stroke="#48C7F4" stroke-width="1.5" stroke-miterlimit="10" stroke-linecap="round" stroke-linejoin="round"/>
<path d="M26.5145 13.3174H24.1176C23.9116 13.3174 23.7451 13.4839 23.7451 13.6898V40.0155C23.7451 40.2214 23.9116 40.3879 24.1176 40.3879H26.5145" stroke="#48C7F4" stroke-width="1.5" stroke-miterlimit="10" stroke-linecap="round" stroke-linejoin="round"/>
<path d="M10.9458 33.7608V46.1757C10.9458 46.557 11.2525 46.8637 11.6337 46.8637H25.8219C26.2031 46.8637 26.5098 46.557 26.5098 46.1757V9.82466C26.5098 9.44344 26.2031 9.13672 25.8219 9.13672H11.6337C11.2525 9.13672 10.9458 9.44344 10.9458 9.82466V22.0581" stroke="#48C7F4" stroke-width="1.5" stroke-miterlimit="10" stroke-linecap="round" stroke-linejoin="round"/>
<path fill-rule="evenodd" clip-rule="evenodd" d="M44.9312 9.82466V46.1757C44.9312 46.557 44.6245 46.8637 44.2433 46.8637H30.0551C29.6739 46.8637 29.3672 46.557 29.3672 46.1757V9.82466C29.3672 9.44344 29.6739 9.13672 30.0551 9.13672H44.2433C44.6245 9.13672 44.9312 9.44344 44.9312 9.82466Z" stroke="#48C7F4" stroke-width="1.5" stroke-miterlimit="10" stroke-linecap="round" stroke-linejoin="round"/>
<path fill-rule="evenodd" clip-rule="evenodd" d="M36.0667 30.9187H40.5348C40.9233 30.9187 41.2421 30.6187 41.2421 30.2424V23.4224C41.2421 23.0509 40.9283 22.7461 40.5348 22.7461H36.0667C35.6782 22.7461 35.3594 23.0461 35.3594 23.4224V30.2472C35.3644 30.6187 35.6782 30.9187 36.0667 30.9187Z" stroke="#48C7F4" stroke-width="1.5" stroke-miterlimit="10" stroke-linecap="round" stroke-linejoin="round"/>
<path d="M35.3638 25.2754H41.2465" stroke="#48C7F4" stroke-width="1.5" stroke-miterlimit="10" stroke-linecap="round" stroke-linejoin="round"/>
<path d="M17.9233 31.501C19.5802 31.501 20.9233 30.1578 20.9233 28.501L20.9233 27.5002C20.9233 25.8433 19.5802 24.5002 17.9233 24.5002L14.5665 24.5002L14.5665 23.2926C14.5665 21.5068 12.404 20.6162 11.1465 21.8842L7.17565 25.8881C6.01577 27.0576 6.01577 28.9436 7.17566 30.1131L11.1465 34.1169C12.404 35.3849 14.5665 34.4944 14.5665 32.7086L14.5665 31.501L17.9233 31.501Z" stroke="#FF7000" stroke-width="1.5" stroke-linecap="round" stroke-linejoin="round"/>
</svg>
